<svg id="Layer_1" data-name="Layer 1" xmlns="http://www.w3.org/2000/svg" viewBox="0 0 27.33 22.77"><defs><style>.cls-1{fill:#9c3;}.cls-1,.cls-2{fill-rule:evenodd;}.cls-2{fill:#84af2b;}</style></defs><title>rrss</title><path class="cls-1" d="M11.45,13.83v-6l5.8,3ZM24.19,6.75a4.66,4.66,0,0,0-.85-2.13,3.05,3.05,0,0,0-2.15-.91c-3-.22-7.52-.22-7.52-.22h0s-4.51,0-7.51.22A3.07,3.07,0,0,0,4,4.62a4.66,4.66,0,0,0-.85,2.13,33.29,33.29,0,0,0-.21,3.48v1.63a33,33,0,0,0,.21,3.47A4.72,4.72,0,0,0,4,17.47a3.61,3.61,0,0,0,2.37.91c1.72.17,7.31.22,7.31.22s4.51,0,7.52-.22a3.1,3.1,0,0,0,2.15-.91,4.72,4.72,0,0,0,.85-2.14,31.49,31.49,0,0,0,.22-3.47V10.23A31.8,31.8,0,0,0,24.19,6.75Z"/><path class="cls-2" d="M11.45,13.83v-6l5.8,3ZM24.19,6.75a4.66,4.66,0,0,0-.85-2.13,3.05,3.05,0,0,0-2.15-.91c-3-.22-7.52-.22-7.52-.22h0s-4.51,0-7.51.22A3.07,3.07,0,0,0,4,4.62a4.66,4.66,0,0,0-.85,2.13,33.29,33.29,0,0,0-.21,3.48v1.63a33,33,0,0,0,.21,3.47A4.72,4.72,0,0,0,4,17.47a3.61,3.61,0,0,0,2.37.91c1.72.17,7.31.22,7.31.22s4.51,0,7.52-.22a3.1,3.1,0,0,0,2.15-.91,4.72,4.72,0,0,0,.85-2.14,31.49,31.49,0,0,0,.22-3.47V10.23A31.8,31.8,0,0,0,24.19,6.75Z"/></svg>