<svg id="Layer_1" data-name="Layer 1" xmlns="http://www.w3.org/2000/svg" xmlns:xlink="http://www.w3.org/1999/xlink" viewBox="0 0 27.33 22.77"><defs><style>.cls-1{fill:none;}.cls-2{clip-path:url(#clip-path);}.cls-3{fill:#9c3;}.cls-4{fill:#84af2b;}</style><clipPath id="clip-path"><rect class="cls-1" x="3.51" y="0.21" width="20.61" height="20.61"/></clipPath></defs><title>rrss</title><g class="cls-2"><path class="cls-3" d="M21,16.51a1.72,1.72,0,0,1-1.73,1.72h-11A1.73,1.73,0,0,1,6.5,16.51V9.13H9.19a4.93,4.93,0,1,0,9.13,0H21ZM11.19,9.13a3.16,3.16,0,0,1,5.14,0A3.17,3.17,0,1,1,10.59,11,3.12,3.12,0,0,1,11.19,9.13Zm9.09-5.08h.4V7.1h-3V4.06ZM19.28,2h-11A3.48,3.48,0,0,0,4.75,5.45V16.51A3.48,3.48,0,0,0,8.23,20H19.29a3.48,3.48,0,0,0,3.48-3.48V5.45A3.49,3.49,0,0,0,19.28,2Z"/></g><g class="cls-2"><path class="cls-4" d="M21,16.51a1.72,1.72,0,0,1-1.73,1.72h-11A1.73,1.73,0,0,1,6.5,16.51V9.13H9.19a4.93,4.93,0,1,0,9.13,0H21ZM11.19,9.13a3.16,3.16,0,0,1,5.14,0A3.17,3.17,0,1,1,10.59,11,3.12,3.12,0,0,1,11.19,9.13Zm9.09-5.08h.4V7.1h-3V4.06ZM19.28,2h-11A3.48,3.48,0,0,0,4.75,5.45V16.51A3.48,3.48,0,0,0,8.23,20H19.29a3.48,3.48,0,0,0,3.48-3.48V5.45A3.49,3.49,0,0,0,19.28,2Z"/></g></svg>