<svg xmlns="http://www.w3.org/2000/svg" xmlns:xlink="http://www.w3.org/1999/xlink" viewBox="0 0 18.02 18"><defs><style>.cls-1{fill:none;}.cls-2{clip-path:url(#clip-path);}.cls-3{fill:#fff;}</style><clipPath id="clip-path" transform="translate(-1.24 -1.79)"><rect class="cls-1" width="20.61" height="20.61"/></clipPath></defs><title>instaAsset 1</title><g id="Layer_2" data-name="Layer 2"><g id="Layer_1-2" data-name="Layer 1"><g class="cls-2"><path class="cls-3" d="M17.49,16.3A1.72,1.72,0,0,1,15.77,18h-11A1.72,1.72,0,0,1,3,16.33V8.92H5.68a4.93,4.93,0,1,0,9.13,0h2.68ZM7.68,8.92a3.17,3.17,0,1,1,0,3.71,3.11,3.11,0,0,1-.6-1.84A3.07,3.07,0,0,1,7.68,8.92Zm9.09-5.08h.4V6.89h-3v-3Zm-1-2h-11A3.48,3.48,0,0,0,1.24,5.22V16.3a3.48,3.48,0,0,0,3.47,3.49H15.78a3.48,3.48,0,0,0,3.48-3.48V5.24A3.49,3.49,0,0,0,15.77,1.79Z" transform="translate(-1.24 -1.79)"/></g></g></g></svg>