<svg xmlns="http://www.w3.org/2000/svg" viewBox="0 0 21.48 15.11"><defs><style>.cls-1{fill:#fff;fill-rule:evenodd;}</style></defs><title>youtubeAsset 1</title><g id="Layer_2" data-name="Layer 2"><g id="Layer_1-2" data-name="Layer 1"><path class="cls-1" d="M8.51,10.34v-6l5.8,3ZM21.25,3.26a4.61,4.61,0,0,0-.85-2.13A3.05,3.05,0,0,0,18.25.22C15.25,0,10.73,0,10.73,0h0S6.22,0,3.22.22a3.08,3.08,0,0,0-2.16.91A4.61,4.61,0,0,0,.21,3.26,33.85,33.85,0,0,0,0,6.74V8.37a33.48,33.48,0,0,0,.21,3.47A4.65,4.65,0,0,0,1.06,14a3.63,3.63,0,0,0,2.37.91c1.72.17,7.31.22,7.31.22s4.51,0,7.52-.22A3.1,3.1,0,0,0,20.41,14a4.65,4.65,0,0,0,.85-2.14,30.93,30.93,0,0,0,.22-3.47V6.74A31.12,31.12,0,0,0,21.25,3.26Z"/></g></g></svg>