<svg xmlns="http://www.w3.org/2000/svg" viewBox="0 0 1631.24 778"><defs><style>.cls-1{fill:#9c3;}.cls-2{fill:#cde195;}</style></defs><title>backgroundAsset 3</title><g id="Layer_2" data-name="Layer 2"><g id="Layer_1-2" data-name="Layer 1"><rect class="cls-1" width="1631.24" height="778"/><path class="cls-2" d="M53.62,72.09l-8.9,24.43L40,83.5a.65.65,0,0,0-.61-.43H37.66a.65.65,0,0,0-.61.88l6.05,16.62a.65.65,0,0,0,.61.43h2a.66.66,0,0,0,.62-.43l10.2-28a.65.65,0,0,0-.61-.88H54.23A.65.65,0,0,0,53.62,72.09Z"/><path class="cls-2" d="M66.36,72.09l-8.9,24.43L53.13,84.61l-1.55,4.26,4.26,11.7a.65.65,0,0,0,.61.43h2a.66.66,0,0,0,.62-.43l10.2-28a.65.65,0,0,0-.61-.88H67A.64.64,0,0,0,66.36,72.09Z"/><path class="cls-2" d="M324.62,72.09l-8.9,24.43L311,83.5a.65.65,0,0,0-.61-.43h-1.72a.65.65,0,0,0-.61.88l6.05,16.62a.65.65,0,0,0,.61.43h2a.66.66,0,0,0,.62-.43l10.2-28a.65.65,0,0,0-.61-.88h-1.71A.65.65,0,0,0,324.62,72.09Z"/><path class="cls-2" d="M337.36,72.09l-8.9,24.43-4.33-11.91-1.55,4.26,4.26,11.7a.65.65,0,0,0,.61.43h2a.66.66,0,0,0,.62-.43l10.2-28a.65.65,0,0,0-.61-.88H338A.64.64,0,0,0,337.36,72.09Z"/><path class="cls-2" d="M595.62,72.09l-8.9,24.43L582,83.5a.65.65,0,0,0-.61-.43h-1.72a.65.65,0,0,0-.61.88l6.05,16.62a.65.65,0,0,0,.61.43h2a.66.66,0,0,0,.62-.43l10.2-28a.65.65,0,0,0-.61-.88h-1.71A.65.65,0,0,0,595.62,72.09Z"/><path class="cls-2" d="M608.36,72.09l-8.9,24.43-4.33-11.91-1.55,4.26,4.26,11.7a.65.65,0,0,0,.61.43h2a.66.66,0,0,0,.62-.43l10.2-28a.65.65,0,0,0-.61-.88H609A.64.64,0,0,0,608.36,72.09Z"/><path class="cls-2" d="M866.62,72.09l-8.9,24.43L853,83.5a.65.65,0,0,0-.61-.43h-1.72a.65.65,0,0,0-.61.88l6.05,16.62a.65.65,0,0,0,.61.43h2a.66.66,0,0,0,.62-.43l10.2-28a.65.65,0,0,0-.61-.88h-1.71A.65.65,0,0,0,866.62,72.09Z"/><path class="cls-2" d="M879.36,72.09l-8.9,24.43-4.33-11.91-1.55,4.26,4.26,11.7a.65.65,0,0,0,.61.43h2a.66.66,0,0,0,.62-.43l10.2-28a.65.65,0,0,0-.61-.88H880A.64.64,0,0,0,879.36,72.09Z"/><path class="cls-2" d="M1137.62,72.09l-8.9,24.43-4.73-13a.65.65,0,0,0-.61-.43h-1.72a.65.65,0,0,0-.61.88l6,16.62a.65.65,0,0,0,.61.43h2a.66.66,0,0,0,.62-.43l10.2-28a.65.65,0,0,0-.61-.88h-1.71A.65.65,0,0,0,1137.62,72.09Z"/><path class="cls-2" d="M1150.36,72.09l-8.9,24.43-4.33-11.91-1.55,4.26,4.26,11.7a.65.65,0,0,0,.61.43h2a.66.66,0,0,0,.62-.43l10.2-28a.65.65,0,0,0-.61-.88H1151A.64.64,0,0,0,1150.36,72.09Z"/><path class="cls-2" d="M1408.62,72.09l-8.9,24.43-4.73-13a.65.65,0,0,0-.61-.43h-1.72a.65.65,0,0,0-.61.88l6,16.62a.65.65,0,0,0,.61.43h2a.66.66,0,0,0,.62-.43l10.2-28a.65.65,0,0,0-.61-.88h-1.71A.65.65,0,0,0,1408.62,72.09Z"/><path class="cls-2" d="M1421.36,72.09l-8.9,24.43-4.33-11.91-1.55,4.26,4.26,11.7a.65.65,0,0,0,.61.43h2a.66.66,0,0,0,.62-.43l10.2-28a.65.65,0,0,0-.61-.88H1422A.64.64,0,0,0,1421.36,72.09Z"/><path class="cls-2" d="M205.28,281.48l-8.9,24.43-4.73-13a.65.65,0,0,0-.61-.43h-1.72a.65.65,0,0,0-.61.87l6,16.63a.65.65,0,0,0,.61.43h2A.66.66,0,0,0,198,310l10.2-28a.65.65,0,0,0-.61-.87h-1.71A.65.65,0,0,0,205.28,281.48Z"/><path class="cls-2" d="M218,281.48l-8.9,24.43L204.79,294l-1.55,4.26L207.5,310a.65.65,0,0,0,.61.43h2a.66.66,0,0,0,.62-.43l10.2-28a.65.65,0,0,0-.61-.87h-1.71A.65.65,0,0,0,218,281.48Z"/><path class="cls-2" d="M476.28,281.48l-8.9,24.43-4.73-13a.65.65,0,0,0-.61-.43h-1.72a.65.65,0,0,0-.61.87L465.76,310a.65.65,0,0,0,.61.43h2A.66.66,0,0,0,469,310l10.2-28a.65.65,0,0,0-.61-.87h-1.71A.65.65,0,0,0,476.28,281.48Z"/><path class="cls-2" d="M489,281.48l-8.9,24.43L475.79,294l-1.55,4.26L478.5,310a.65.65,0,0,0,.61.43h2a.66.66,0,0,0,.62-.43l10.2-28a.65.65,0,0,0-.61-.87h-1.71A.65.65,0,0,0,489,281.48Z"/><path class="cls-2" d="M747.28,281.48l-8.9,24.43-4.73-13a.65.65,0,0,0-.61-.43h-1.72a.65.65,0,0,0-.61.87l6,16.63a.65.65,0,0,0,.61.43h2A.66.66,0,0,0,740,310l10.2-28a.65.65,0,0,0-.61-.87h-1.71A.65.65,0,0,0,747.28,281.48Z"/><path class="cls-2" d="M760,281.48l-8.9,24.43L746.79,294l-1.55,4.26L749.5,310a.65.65,0,0,0,.61.43h2a.66.66,0,0,0,.62-.43l10.2-28a.65.65,0,0,0-.61-.87h-1.71A.65.65,0,0,0,760,281.48Z"/><path class="cls-2" d="M1018.28,281.48l-8.9,24.43-4.73-13a.65.65,0,0,0-.61-.43h-1.72a.65.65,0,0,0-.61.87l6,16.63a.65.65,0,0,0,.61.43h2a.66.66,0,0,0,.62-.43l10.2-28a.65.65,0,0,0-.61-.87h-1.71A.65.65,0,0,0,1018.28,281.48Z"/><path class="cls-2" d="M1031,281.48l-8.9,24.43L1017.79,294l-1.55,4.26,4.26,11.7a.65.65,0,0,0,.61.43h2a.66.66,0,0,0,.62-.43l10.2-28a.65.65,0,0,0-.61-.87h-1.71A.65.65,0,0,0,1031,281.48Z"/><path class="cls-2" d="M1289.28,281.48l-8.9,24.43-4.73-13a.65.65,0,0,0-.61-.43h-1.72a.65.65,0,0,0-.61.87l6,16.63a.65.65,0,0,0,.61.43h2a.66.66,0,0,0,.62-.43l10.2-28a.65.65,0,0,0-.61-.87h-1.71A.65.65,0,0,0,1289.28,281.48Z"/><path class="cls-2" d="M1302,281.48l-8.9,24.43L1288.79,294l-1.55,4.26,4.26,11.7a.65.65,0,0,0,.61.43h2a.66.66,0,0,0,.62-.43l10.2-28a.65.65,0,0,0-.61-.87h-1.71A.65.65,0,0,0,1302,281.48Z"/><path class="cls-2" d="M1560.28,281.48l-8.9,24.43-4.73-13a.65.65,0,0,0-.61-.43h-1.72a.65.65,0,0,0-.61.87l6,16.63a.65.65,0,0,0,.61.43h2a.66.66,0,0,0,.62-.43l10.2-28a.65.65,0,0,0-.61-.87h-1.71A.65.65,0,0,0,1560.28,281.48Z"/><path class="cls-2" d="M1573,281.48l-8.9,24.43L1559.79,294l-1.55,4.26,4.26,11.7a.65.65,0,0,0,.61.43h2a.66.66,0,0,0,.62-.43l10.2-28a.65.65,0,0,0-.61-.87h-1.71A.65.65,0,0,0,1573,281.48Z"/><path class="cls-2" d="M205.28,701.48l-8.9,24.43-4.73-13a.65.65,0,0,0-.61-.43h-1.72a.65.65,0,0,0-.61.87l6,16.63a.65.65,0,0,0,.61.43h2A.66.66,0,0,0,198,730l10.2-28a.65.65,0,0,0-.61-.87h-1.71A.65.65,0,0,0,205.28,701.48Z"/><path class="cls-2" d="M218,701.48l-8.9,24.43L204.79,714l-1.55,4.26L207.5,730a.65.65,0,0,0,.61.43h2a.66.66,0,0,0,.62-.43l10.2-28a.65.65,0,0,0-.61-.87h-1.71A.65.65,0,0,0,218,701.48Z"/><path class="cls-2" d="M476.28,701.48l-8.9,24.43-4.73-13a.65.65,0,0,0-.61-.43h-1.72a.65.65,0,0,0-.61.87L465.76,730a.65.65,0,0,0,.61.43h2A.66.66,0,0,0,469,730l10.2-28a.65.65,0,0,0-.61-.87h-1.71A.65.65,0,0,0,476.28,701.48Z"/><path class="cls-2" d="M489,701.48l-8.9,24.43L475.79,714l-1.55,4.26L478.5,730a.65.65,0,0,0,.61.43h2a.66.66,0,0,0,.62-.43l10.2-28a.65.65,0,0,0-.61-.87h-1.71A.65.65,0,0,0,489,701.48Z"/><path class="cls-2" d="M747.28,701.48l-8.9,24.43-4.73-13a.65.65,0,0,0-.61-.43h-1.72a.65.65,0,0,0-.61.87l6,16.63a.65.65,0,0,0,.61.43h2A.66.66,0,0,0,740,730l10.2-28a.65.65,0,0,0-.61-.87h-1.71A.65.65,0,0,0,747.28,701.48Z"/><path class="cls-2" d="M760,701.48l-8.9,24.43L746.79,714l-1.55,4.26L749.5,730a.65.65,0,0,0,.61.43h2a.66.66,0,0,0,.62-.43l10.2-28a.65.65,0,0,0-.61-.87h-1.71A.65.65,0,0,0,760,701.48Z"/><path class="cls-2" d="M1018.28,701.48l-8.9,24.43-4.73-13a.65.65,0,0,0-.61-.43h-1.72a.65.65,0,0,0-.61.87l6,16.63a.65.65,0,0,0,.61.43h2a.66.66,0,0,0,.62-.43l10.2-28a.65.65,0,0,0-.61-.87h-1.71A.65.65,0,0,0,1018.28,701.48Z"/><path class="cls-2" d="M1031,701.48l-8.9,24.43L1017.79,714l-1.55,4.26,4.26,11.7a.65.65,0,0,0,.61.43h2a.66.66,0,0,0,.62-.43l10.2-28a.65.65,0,0,0-.61-.87h-1.71A.65.65,0,0,0,1031,701.48Z"/><path class="cls-2" d="M1289.28,701.48l-8.9,24.43-4.73-13a.65.65,0,0,0-.61-.43h-1.72a.65.65,0,0,0-.61.87l6,16.63a.65.65,0,0,0,.61.43h2a.66.66,0,0,0,.62-.43l10.2-28a.65.65,0,0,0-.61-.87h-1.71A.65.65,0,0,0,1289.28,701.48Z"/><path class="cls-2" d="M1302,701.48l-8.9,24.43L1288.79,714l-1.55,4.26,4.26,11.7a.65.65,0,0,0,.61.43h2a.66.66,0,0,0,.62-.43l10.2-28a.65.65,0,0,0-.61-.87h-1.71A.65.65,0,0,0,1302,701.48Z"/><path class="cls-2" d="M1560.28,701.48l-8.9,24.43-4.73-13a.65.65,0,0,0-.61-.43h-1.72a.65.65,0,0,0-.61.87l6,16.63a.65.65,0,0,0,.61.43h2a.66.66,0,0,0,.62-.43l10.2-28a.65.65,0,0,0-.61-.87h-1.71A.65.65,0,0,0,1560.28,701.48Z"/><path class="cls-2" d="M1573,701.48l-8.9,24.43L1559.79,714l-1.55,4.26,4.26,11.7a.65.65,0,0,0,.61.43h2a.66.66,0,0,0,.62-.43l10.2-28a.65.65,0,0,0-.61-.87h-1.71A.65.65,0,0,0,1573,701.48Z"/><path class="cls-2" d="M53.62,494.29l-8.9,24.43L40,505.7a.65.65,0,0,0-.61-.43H37.66a.65.65,0,0,0-.61.87l6.05,16.63a.65.65,0,0,0,.61.43h2a.66.66,0,0,0,.62-.43l10.2-28a.65.65,0,0,0-.61-.87H54.23A.65.65,0,0,0,53.62,494.29Z"/><path class="cls-2" d="M66.36,494.29l-8.9,24.43-4.33-11.91-1.55,4.26,4.26,11.7a.65.65,0,0,0,.61.43h2a.66.66,0,0,0,.62-.43l10.2-28a.65.65,0,0,0-.61-.87H67A.64.64,0,0,0,66.36,494.29Z"/><path class="cls-2" d="M324.62,494.29l-8.9,24.43-4.73-13a.65.65,0,0,0-.61-.43h-1.72a.65.65,0,0,0-.61.87l6.05,16.63a.65.65,0,0,0,.61.43h2a.66.66,0,0,0,.62-.43l10.2-28a.65.65,0,0,0-.61-.87h-1.71A.65.65,0,0,0,324.62,494.29Z"/><path class="cls-2" d="M337.36,494.29l-8.9,24.43-4.33-11.91-1.55,4.26,4.26,11.7a.65.65,0,0,0,.61.43h2a.66.66,0,0,0,.62-.43l10.2-28a.65.65,0,0,0-.61-.87H338A.64.64,0,0,0,337.36,494.29Z"/><path class="cls-2" d="M595.62,494.29l-8.9,24.43-4.73-13a.65.65,0,0,0-.61-.43h-1.72a.65.65,0,0,0-.61.87l6.05,16.63a.65.65,0,0,0,.61.43h2a.66.66,0,0,0,.62-.43l10.2-28a.65.65,0,0,0-.61-.87h-1.71A.65.65,0,0,0,595.62,494.29Z"/><path class="cls-2" d="M608.36,494.29l-8.9,24.43-4.33-11.91-1.55,4.26,4.26,11.7a.65.65,0,0,0,.61.43h2a.66.66,0,0,0,.62-.43l10.2-28a.65.65,0,0,0-.61-.87H609A.64.64,0,0,0,608.36,494.29Z"/><path class="cls-2" d="M866.62,494.29l-8.9,24.43-4.73-13a.65.65,0,0,0-.61-.43h-1.72a.65.65,0,0,0-.61.87l6.05,16.63a.65.65,0,0,0,.61.43h2a.66.66,0,0,0,.62-.43l10.2-28a.65.65,0,0,0-.61-.87h-1.71A.65.65,0,0,0,866.62,494.29Z"/><path class="cls-2" d="M879.36,494.29l-8.9,24.43-4.33-11.91-1.55,4.26,4.26,11.7a.65.65,0,0,0,.61.43h2a.66.66,0,0,0,.62-.43l10.2-28a.65.65,0,0,0-.61-.87H880A.64.64,0,0,0,879.36,494.29Z"/><path class="cls-2" d="M1137.62,494.29l-8.9,24.43-4.73-13a.65.65,0,0,0-.61-.43h-1.72a.65.65,0,0,0-.61.87l6,16.63a.65.65,0,0,0,.61.43h2a.66.66,0,0,0,.62-.43l10.2-28a.65.65,0,0,0-.61-.87h-1.71A.65.65,0,0,0,1137.62,494.29Z"/><path class="cls-2" d="M1150.36,494.29l-8.9,24.43-4.33-11.91-1.55,4.26,4.26,11.7a.65.65,0,0,0,.61.43h2a.66.66,0,0,0,.62-.43l10.2-28a.65.65,0,0,0-.61-.87H1151A.64.64,0,0,0,1150.36,494.29Z"/><path class="cls-2" d="M1408.62,494.29l-8.9,24.43-4.73-13a.65.65,0,0,0-.61-.43h-1.72a.65.65,0,0,0-.61.87l6,16.63a.65.65,0,0,0,.61.43h2a.66.66,0,0,0,.62-.43l10.2-28a.65.65,0,0,0-.61-.87h-1.71A.65.65,0,0,0,1408.62,494.29Z"/><path class="cls-2" d="M1421.36,494.29l-8.9,24.43-4.33-11.91-1.55,4.26,4.26,11.7a.65.65,0,0,0,.61.43h2a.66.66,0,0,0,.62-.43l10.2-28a.65.65,0,0,0-.61-.87H1422A.64.64,0,0,0,1421.36,494.29Z"/></g></g></svg>