<svg xmlns="http://www.w3.org/2000/svg" viewBox="0 0 69.69 47.54"><defs><style>.cls-1{fill:#55565b;}.cls-2{fill:none;stroke:#55565b;stroke-linecap:round;stroke-linejoin:round;stroke-width:2px;}.cls-3{fill:#fff;}</style></defs><title>icon_truckAsset 1</title><g id="Layer_2" data-name="Layer 2"><g id="Layer_1-2" data-name="Layer 1"><circle class="cls-1" cx="8.96" cy="1.49" r="1.49"/><circle class="cls-1" cx="1.49" cy="12.69" r="1.49"/><polyline class="cls-2" points="16.43 1.49 46.29 1.49 46.29 42.54"/><path class="cls-2" d="M46.29,12.69H54.8a3.73,3.73,0,0,1,3.54,2.56l2.88,8.64H65a3.73,3.73,0,0,1,3.73,3.73V42.56H9"/><circle class="cls-3" cx="57.49" cy="42.56" r="3.99"/><path class="cls-1" d="M57.49,39.57a3,3,0,1,1-3,3,3,3,0,0,1,3-3m0-2a5,5,0,1,0,5,5,5,5,0,0,0-5-5Z"/><path class="cls-3" d="M20.16,46.54a4,4,0,1,1,4-4A4,4,0,0,1,20.16,46.54Z"/><path class="cls-1" d="M20.16,39.57a3,3,0,1,1-3,3,3,3,0,0,1,3-3m0-2a5,5,0,1,0,5,5,5,5,0,0,0-5-5Z"/><line class="cls-2" x1="46.29" y1="23.99" x2="53.76" y2="23.99"/><line class="cls-2" x1="31.36" y1="23.89" x2="5.23" y2="23.89"/><line class="cls-2" x1="31.36" y1="12.69" x2="8.96" y2="12.69"/></g></g></svg>