<svg xmlns="http://www.w3.org/2000/svg" viewBox="0 0 284.98 90.86"><defs><style>.cls-1{fill:#55565b;}.cls-2{fill:#9c3;}</style></defs><title>logo_footerAsset 6</title><g id="Layer_2" data-name="Layer 2"><g id="Layer_1-2" data-name="Layer 1"><path class="cls-1" d="M223.91,20.06l0,2.3a1.3,1.3,0,0,1-1.33,1.27C215,23.43,210,28.26,210,35.88V57a1.3,1.3,0,0,1-1.3,1.29h-3.33A1.3,1.3,0,0,1,204,57V20.73a1.3,1.3,0,0,1,1.3-1.3h3.33a1.3,1.3,0,0,1,1.3,1.3v4.46c1.72-3.46,4.42-7.06,12.75-6.45A1.3,1.3,0,0,1,223.91,20.06Z"/><path class="cls-1" d="M247.87,20.06l0,2.3a1.3,1.3,0,0,1-1.33,1.27c-7.51-.2-12.59,4.63-12.59,12.25V57a1.3,1.3,0,0,1-1.3,1.29h-3.33A1.29,1.29,0,0,1,228,57V20.73a1.3,1.3,0,0,1,1.29-1.3h3.33a1.3,1.3,0,0,1,1.3,1.3v4.46c1.73-3.46,4.43-7.06,12.76-6.45A1.3,1.3,0,0,1,247.87,20.06Z"/><path class="cls-2" d="M93.22,50.91a1.28,1.28,0,0,0-1.93-.21c-2.5,2.36-7.59,3.65-11.24,3.65-7.9,0-12.92-4.78-13.57-13.08H95.53A2.45,2.45,0,0,0,98,38.82v0C98,27,90.41,18.73,79.56,18.73S60.88,27.2,60.88,39.13s7.73,20.4,18.68,20.4c6.06,0,11.29-2.1,14.55-5.52a1.31,1.31,0,0,0,.13-1.65ZM79.64,23.5c7.48,0,12.58,5.18,13.32,13H66.15C67.05,28.76,72,23.5,79.64,23.5Z"/><path class="cls-1" d="M150.05,48.18a22.67,22.67,0,1,1,0-35.6,1.29,1.29,0,0,0,1.86-.27l2.23-3.19a1.31,1.31,0,0,0-.28-1.78,29.15,29.15,0,1,0,0,46.08,1.31,1.31,0,0,0,.28-1.78l-2.23-3.19A1.29,1.29,0,0,0,150.05,48.18Z"/><path class="cls-1" d="M189.76,20.73v4.64a18.56,18.56,0,0,0-13.85-6.31c-10.54,0-19.08,9.06-19.08,20.23s8.54,20.24,19.08,20.24a18.53,18.53,0,0,0,13.85-6.32V57a1.29,1.29,0,0,0,1.29,1.29h3.17a1.3,1.3,0,0,0,1.3-1.29V20.73a1.3,1.3,0,0,0-1.3-1.3h-3.17A1.3,1.3,0,0,0,189.76,20.73ZM176.17,54.18c-7.5,0-13.58-6.67-13.58-14.89s6.08-14.89,13.58-14.89,13.59,6.67,13.59,14.89S183.68,54.18,176.17,54.18Z"/><path class="cls-1" d="M278.75,20.25l-10.6,29.11L257.57,20.25a1.29,1.29,0,0,0-1.22-.85h-3.73a1.29,1.29,0,0,0-1.22,1.73l13.52,37.13h0L258.46,76a1.29,1.29,0,0,0,1.22,1.73h3.72a1.3,1.3,0,0,0,1.22-.85l6.77-18.61,13.52-37.13a1.29,1.29,0,0,0-1.22-1.73H280A1.3,1.3,0,0,0,278.75,20.25Z"/><path class="cls-2" d="M33,.85,15.33,49.4,5.92,23.52a1.29,1.29,0,0,0-1.22-.85H1.3A1.3,1.3,0,0,0,.08,24.41l12,33a1.3,1.3,0,0,0,1.22.85h4a1.29,1.29,0,0,0,1.22-.85L38.83,1.74A1.3,1.3,0,0,0,37.61,0h-3.4A1.28,1.28,0,0,0,33,.85Z"/><path class="cls-2" d="M58.31.85,40.64,49.4,32,25.73,29,34.2l8.46,23.24a1.31,1.31,0,0,0,1.22.85h4a1.28,1.28,0,0,0,1.21-.85L64.14,1.74A1.3,1.3,0,0,0,62.92,0h-3.4A1.28,1.28,0,0,0,58.31.85Z"/><path class="cls-1" d="M52.78,79.45a.16.16,0,0,1,.17-.16h3.83a3.5,3.5,0,0,1,3.72,2.43A9.79,9.79,0,0,1,60.81,85a9.82,9.82,0,0,1-.31,3.27,3.5,3.5,0,0,1-3.72,2.43H53a.16.16,0,0,1-.17-.17Zm1.59,9.84h2.1c1.37,0,2.22-.45,2.59-1.56A8.29,8.29,0,0,0,59.3,85a8.21,8.21,0,0,0-.24-2.74c-.37-1.11-1.22-1.56-2.59-1.56h-2.1a.09.09,0,0,0-.1.1v8.41A.09.09,0,0,0,54.37,89.29Z"/><path class="cls-1" d="M63.16,79.45a.16.16,0,0,1,.17-.16h6.85a.16.16,0,0,1,.17.16v1.06a.16.16,0,0,1-.17.17H64.76c-.07,0-.1,0-.1.1v3.35a.09.09,0,0,0,.1.1h4.6a.16.16,0,0,1,.17.17v1a.16.16,0,0,1-.17.17h-4.6c-.07,0-.1,0-.1.1v3.47a.09.09,0,0,0,.1.1h5.42a.16.16,0,0,1,.17.16v1.06a.16.16,0,0,1-.17.17H63.33a.16.16,0,0,1-.17-.17Z"/><path class="cls-1" d="M76.79,79.45a.15.15,0,0,1,.16-.16h1.16a.16.16,0,0,1,.17.16v9.74a.09.09,0,0,0,.1.1h5.43a.15.15,0,0,1,.16.16v1.06a.16.16,0,0,1-.16.17H77a.16.16,0,0,1-.16-.17Z"/><path class="cls-1" d="M89.36,79.45a.21.21,0,0,1,.21-.16h1.08a.21.21,0,0,1,.22.16l3.91,11.06a.12.12,0,0,1-.12.17H93.49a.2.2,0,0,1-.22-.17L92.4,88H87.79l-.87,2.48a.23.23,0,0,1-.22.17H85.53a.12.12,0,0,1-.12-.17Zm2.55,7.21-1.79-5.18h0l-1.8,5.18Z"/><path class="cls-1" d="M108.88,90.68c-.1,0-.15-.07-.18-.17L106.27,82h0l-2.42,8.49a.21.21,0,0,1-.2.17h-.92a.18.18,0,0,1-.18-.17L99.77,79.45c0-.1,0-.16.13-.16H101a.18.18,0,0,1,.2.16l2,8.46h0l2.36-8.46a.21.21,0,0,1,.2-.16h.86a.19.19,0,0,1,.2.16l2.41,8.46h0l2-8.46a.21.21,0,0,1,.22-.16h1.09c.12,0,.15.06.13.16L110,90.51a.2.2,0,0,1-.2.17Z"/><path class="cls-1" d="M114.68,79.45a.16.16,0,0,1,.17-.16h6.85a.16.16,0,0,1,.17.16v1.06a.16.16,0,0,1-.17.17h-5.43a.09.09,0,0,0-.1.1v3.35a.09.09,0,0,0,.1.1h4.61a.16.16,0,0,1,.17.17v1a.16.16,0,0,1-.17.17h-4.61a.09.09,0,0,0-.1.1v3.47a.09.09,0,0,0,.1.1h5.43a.16.16,0,0,1,.17.16v1.06a.16.16,0,0,1-.17.17h-6.85a.16.16,0,0,1-.17-.17Z"/><path class="cls-1" d="M124,79.45a.16.16,0,0,1,.17-.16h4c2.29,0,3.43,1.17,3.43,3a2.44,2.44,0,0,1-1.52,2.47v0a2.62,2.62,0,0,1,1.72,2.63c0,2.13-1.34,3.25-3.71,3.25h-4a.16.16,0,0,1-.17-.17Zm4.18,4.76a1.8,1.8,0,1,0,0-3.57h-2.58a.09.09,0,0,0-.1.1v3.37c0,.07,0,.1.1.1Zm-2.58,5.11h2.66c1.36,0,2.09-.74,2.09-1.88a1.83,1.83,0,0,0-2.09-1.87h-2.66c-.07,0-.1,0-.1.1v3.55C125.49,89.29,125.52,89.32,125.59,89.32Z"/><path class="cls-1" d="M141.25,79.45a.19.19,0,0,1,.2-.16h1.09a.22.22,0,0,1,.22.16l3.9,11.06c0,.1,0,.17-.12.17h-1.17a.21.21,0,0,1-.22-.17L144.28,88h-4.6l-.87,2.48a.23.23,0,0,1-.22.17h-1.18c-.1,0-.15-.07-.11-.17Zm2.55,7.21L142,81.48h0l-1.81,5.18Z"/><path class="cls-1" d="M155.18,90.68a.16.16,0,0,1-.17-.17V80.78a.09.09,0,0,0-.1-.1h-3.12a.16.16,0,0,1-.17-.17V79.45a.16.16,0,0,1,.17-.16h7.92a.15.15,0,0,1,.17.16v1.06a.16.16,0,0,1-.17.17H156.6c-.07,0-.1,0-.1.1v9.73a.16.16,0,0,1-.17.17Z"/><path class="cls-1" d="M161.74,86.71V79.45a.15.15,0,0,1,.16-.16h1.16a.16.16,0,0,1,.17.16v7.24c0,1.84,1,2.78,2.54,2.78s2.53-.94,2.53-2.78V79.45a.16.16,0,0,1,.17-.16h1.16a.15.15,0,0,1,.16.16v7.26c0,2.68-1.52,4.15-4,4.15S161.74,89.39,161.74,86.71Z"/><path class="cls-1" d="M176.88,90.68a.16.16,0,0,1-.17-.17V79.45a.16.16,0,0,1,.17-.16h4.06a3.41,3.41,0,1,1,0,6.8h-2.63c-.07,0-.1,0-.1.1v4.32a.16.16,0,0,1-.17.17Zm6.2-8a2,2,0,0,0-2.23-2h-2.54c-.07,0-.1,0-.1.1V84.6a.09.09,0,0,0,.1.1h2.54A2,2,0,0,0,183.08,82.69Z"/><path class="cls-1" d="M186.56,86.71V79.45a.15.15,0,0,1,.16-.16h1.16a.16.16,0,0,1,.17.16v7.24c0,1.84,1,2.78,2.54,2.78s2.53-.94,2.53-2.78V79.45a.16.16,0,0,1,.17-.16h1.16a.15.15,0,0,1,.16.16v7.26c0,2.68-1.52,4.15-4,4.15S186.56,89.39,186.56,86.71Z"/><path class="cls-1" d="M197.23,79.45a.16.16,0,0,1,.17-.16h6.85a.16.16,0,0,1,.17.16v1.06a.16.16,0,0,1-.17.17h-5.43a.09.09,0,0,0-.1.1v3.35a.09.09,0,0,0,.1.1h4.61a.16.16,0,0,1,.17.17v1a.16.16,0,0,1-.17.17h-4.61a.09.09,0,0,0-.1.1v3.47a.09.09,0,0,0,.1.1h5.43a.16.16,0,0,1,.17.16v1.06a.16.16,0,0,1-.17.17H197.4a.16.16,0,0,1-.17-.17Z"/><path class="cls-1" d="M213.14,90.68c-.12,0-.17-.05-.22-.17l-2.27-4.66h-2.52a.09.09,0,0,0-.1.1v4.56a.16.16,0,0,1-.17.17h-1.15a.16.16,0,0,1-.17-.17V79.45a.16.16,0,0,1,.17-.16h4.12a3.24,3.24,0,0,1,3.57,3.28,3.1,3.1,0,0,1-2.25,3.1l2.43,4.81a.12.12,0,0,1-.1.2Zm-.23-8.11c0-1.19-.79-1.89-2.11-1.89h-2.67a.09.09,0,0,0-.1.1v3.58a.09.09,0,0,0,.1.1h2.67C212.12,84.46,212.91,83.76,212.91,82.57Z"/><path class="cls-1" d="M219.46,90.68a.16.16,0,0,1-.17-.17V80.78c0-.07,0-.1-.1-.1h-3.12a.16.16,0,0,1-.16-.17V79.45a.15.15,0,0,1,.16-.16H224a.15.15,0,0,1,.16.16v1.06a.16.16,0,0,1-.16.17h-3.12c-.07,0-.1,0-.1.1v9.73a.16.16,0,0,1-.17.17Z"/><path class="cls-1" d="M227.79,79.45a.19.19,0,0,1,.2-.16h1.09a.22.22,0,0,1,.22.16l3.9,11.06a.12.12,0,0,1-.12.17h-1.17a.21.21,0,0,1-.22-.17L230.82,88h-4.6l-.88,2.48c-.05.12-.11.17-.21.17H224c-.1,0-.15-.07-.11-.17Zm2.55,7.21-1.8-5.18h0l-1.81,5.18Z"/></g></g></svg>