<svg xmlns="http://www.w3.org/2000/svg" viewBox="0 0 95.64 86.82"><defs><style>.cls-1{fill:#fff;}</style></defs><title>we_carry_checksAsset 2</title><g id="Layer_2" data-name="Layer 2"><g id="Layer_1-2" data-name="Layer 1"><path class="cls-1" d="M51,0H56a1.94,1.94,0,0,1,1.82,2.59l-30.2,83a1.93,1.93,0,0,1-1.81,1.27h-6A2,2,0,0,1,18,85.55L.12,36.35a1.93,1.93,0,0,1,1.81-2.59H7A1.93,1.93,0,0,1,8.82,35l14,38.54L49.14,1.27A1.93,1.93,0,0,1,51,0Zm37.7,0h5.06a1.93,1.93,0,0,1,1.81,2.59l-30.19,83a1.94,1.94,0,0,1-1.82,1.27h-6a1.93,1.93,0,0,1-1.81-1.27L43.12,50.94l4.59-12.61L60.52,73.57,86.84,1.27A1.93,1.93,0,0,1,88.65,0Z"/></g></g></svg>