<svg xmlns="http://www.w3.org/2000/svg" viewBox="0 0 177.97 48.54"><defs><style>.cls-1{fill:#9c3;}.cls-2{fill:#55565b;}</style></defs><title>weCarryLogo</title><g id="Layer_2" data-name="Layer 2"><g id="Layer_1-2" data-name="Layer 1"><path class="cls-1" d="M57.2,31.79a.79.79,0,0,0-1.2-.13c-1.56,1.47-4.74,2.28-7,2.28-4.93,0-8.07-3-8.48-8.17H58.65a1.53,1.53,0,0,0,1.53-1.53h0c0-7.4-4.73-12.53-11.51-12.53S37,17,37,24.43s4.83,12.74,11.66,12.74a12.45,12.45,0,0,0,9.09-3.44.82.82,0,0,0,.08-1ZM48.72,14.67c4.68,0,7.86,3.24,8.32,8.12H40.3C40.86,18,43.94,14.67,48.72,14.67ZM21.37,0h2.12a.81.81,0,0,1,.76,1.09L11.59,35.87a.81.81,0,0,1-.76.53H8.32a.8.8,0,0,1-.76-.53L.05,15.24a.81.81,0,0,1,.76-1.08H2.94a.81.81,0,0,1,.76.53L9.57,30.85,20.61.53A.8.8,0,0,1,21.37,0Zm15.8,0h2.12a.81.81,0,0,1,.76,1.09L27.39,35.87a.8.8,0,0,1-.76.53H24.12a.81.81,0,0,1-.76-.53L18.08,21.36,20,16.07l5.37,14.78L36.41.53A.81.81,0,0,1,37.17,0Z"/><path class="cls-2" d="M139.34,12.53l0,1.43a.81.81,0,0,1-.84.79c-4.69-.12-7.86,2.9-7.86,7.66V35.59a.81.81,0,0,1-.81.81h-2.08a.81.81,0,0,1-.81-.81V12.94a.81.81,0,0,1,.81-.81h2.08a.81.81,0,0,1,.81.81v2.79c1.08-2.16,2.77-4.41,8-4A.81.81,0,0,1,139.34,12.53Zm15,0,0,1.43a.8.8,0,0,1-.83.79c-4.69-.12-7.86,2.9-7.86,7.66V35.59a.81.81,0,0,1-.81.81H142.7a.81.81,0,0,1-.81-.81V12.94a.81.81,0,0,1,.81-.81h2.08a.82.82,0,0,1,.81.81v2.79c1.08-2.16,2.76-4.41,8-4A.83.83,0,0,1,154.31,12.53Zm-35.81.41v2.91a11.56,11.56,0,0,0-8.64-3.95c-6.59,0-11.92,5.66-11.92,12.64s5.33,12.63,11.92,12.63a11.55,11.55,0,0,0,8.64-3.94v2.36a.81.81,0,0,0,.81.81h2a.81.81,0,0,0,.81-.81V12.94a.81.81,0,0,0-.81-.8h-2A.8.8,0,0,0,118.5,12.94ZM110,33.84c-4.69,0-8.49-4.17-8.49-9.3s3.8-9.3,8.49-9.3,8.48,4.16,8.48,9.3S114.7,33.84,110,33.84Zm64.06-21.2-6.62,18.18-6.61-18.18a.81.81,0,0,0-.76-.53h-2.33A.81.81,0,0,0,157,13.2l8.44,23.18h0l-4,11.07a.81.81,0,0,0,.76,1.09h2.32a.82.82,0,0,0,.76-.53l4.23-11.63,8.44-23.18a.81.81,0,0,0-.76-1.09h-2.32A.8.8,0,0,0,174.08,12.64ZM94,30.45a14.66,14.66,0,1,1,0-23,.81.81,0,0,0,1.17-.17l1.11-1.58A.81.81,0,0,0,96,4.62,18.08,18.08,0,0,0,83.89.8a18.2,18.2,0,0,0,1,36.37,18.08,18.08,0,0,0,11.2-3.86.81.81,0,0,0,.18-1.11l-1.11-1.58A.8.8,0,0,0,94,30.45Z"/></g></g></svg>