<svg id="Layer_1" data-name="Layer 1" xmlns="http://www.w3.org/2000/svg" viewBox="0 0 178.5 74"><defs><style>.cls-1{fill:none;stroke:#55565b;stroke-linecap:round;stroke-linejoin:round;stroke-width:3px;}.cls-2{fill:#55565b;}.cls-3{fill:#9c3;}</style></defs><title>we carry-web</title><line class="cls-1" x1="126.99" y1="36.97" x2="115.63" y2="36.97"/><path class="cls-1" d="M115.63,44.54H127V59.65a3.79,3.79,0,0,0,3.79,3.79h26.51a3.79,3.79,0,0,0,3.79-3.79V14.24a3.79,3.79,0,0,0-3.79-3.79H130.78A3.79,3.79,0,0,0,127,14.24V29.41h-7.58"/><circle class="cls-2" cx="111.84" cy="29.39" r="1.52"/><rect class="cls-1" x="132.67" y="16.13" width="22.73" height="35.99"/><path class="cls-3" d="M84.3,51.2A1,1,0,0,0,82.76,51c-2,1.89-6.08,2.92-9,2.92-6.32,0-10.34-3.82-10.87-10.47H86.15a2,2,0,0,0,2-1.95v0c0-9.48-6-16.07-14.75-16.07S58.42,32.22,58.42,41.77,64.61,58.1,73.36,58.1c4.86,0,9-1.67,11.66-4.42a1,1,0,0,0,.1-1.31ZM73.43,29.26c6,0,10.07,4.15,10.67,10.41H62.63C63.36,33.48,67.31,29.26,73.43,29.26ZM37.07,10.45h2.72a1,1,0,0,1,1,1.39L24.53,56.43a1,1,0,0,1-1,.68H20.34a1,1,0,0,1-1-.68L9.74,30a1,1,0,0,1,1-1.39h2.73a1,1,0,0,1,1,.68L22,50,36.09,11.13A1,1,0,0,1,37.07,10.45Zm20.26,0h2.72a1,1,0,0,1,1,1.39L44.79,56.43a1,1,0,0,1-1,.68H40.6a1,1,0,0,1-1-.68l-6.77-18.6,2.47-6.78L42.21,50,56.35,11.13A1,1,0,0,1,57.33,10.45Z"/><circle class="cls-3" cx="97.43" cy="40.51" r="2.66"/></svg>