<svg id="Layer_1" data-name="Layer 1" xmlns="http://www.w3.org/2000/svg" viewBox="0 0 178.5 74"><defs><style>.cls-1{fill:#9c3;}.cls-2{fill:none;stroke:#55565b;stroke-linecap:round;stroke-linejoin:round;stroke-width:4px;}.cls-3{fill:#55565b;}</style></defs><title>we carry-web</title><path class="cls-1" d="M80,55.25a1,1,0,0,0-1.54-.17c-2,1.89-6.08,2.92-9,2.92-6.32,0-10.34-3.82-10.86-10.47H81.87a2,2,0,0,0,2-2v0c0-9.48-6-16.06-14.75-16.06S54.14,36.27,54.14,45.82s6.19,16.33,14.94,16.33c4.86,0,9-1.68,11.66-4.42a1.06,1.06,0,0,0,.1-1.32ZM69.15,33.31c6,0,10.07,4.14,10.67,10.4H58.35C59.08,37.52,63,33.31,69.15,33.31ZM32.79,14.5h2.72a1,1,0,0,1,1,1.39L20.25,60.48a1,1,0,0,1-1,.68H16.06a1,1,0,0,1-1-.68L5.47,34a1,1,0,0,1,1-1.39H9.17a1,1,0,0,1,1,.69L17.67,54,31.81,15.18A1,1,0,0,1,32.79,14.5Zm20.26,0h2.72a1,1,0,0,1,1,1.39L40.51,60.48a1,1,0,0,1-1,.68H36.32a1,1,0,0,1-1-.68L28.58,41.87l2.47-6.78L37.93,54,52.07,15.18A1,1,0,0,1,53.05,14.5Z"/><circle class="cls-1" cx="93.16" cy="44.55" r="2.66"/><path class="cls-2" d="M132.16,30.48l8.2-8.2,4.1-16.4h0a8.12,8.12,0,0,1,8,9.47l-1.86,11h14.17a4.22,4.22,0,0,1,4.26,3.7,4.1,4.1,0,0,1-4.08,4.5h2a4.1,4.1,0,0,1,4.08,4.5,4.21,4.21,0,0,1-4.25,3.7H165A4.1,4.1,0,0,1,169,47.29,4.21,4.21,0,0,1,164.78,51h-1.87A4.1,4.1,0,0,1,167,55.49a4.21,4.21,0,0,1-4.26,3.69H141.4A12.38,12.38,0,0,1,132.16,55h0"/><rect class="cls-2" x="119.86" y="26.38" width="12.3" height="32.8"/><line class="cls-2" x1="119.86" y1="42.78" x2="107.55" y2="42.78"/><line class="cls-2" x1="119.86" y1="34.58" x2="111.66" y2="34.58"/><line class="cls-2" x1="107.55" y1="50.98" x2="119.86" y2="50.98"/><circle class="cls-3" cx="105.5" cy="34.58" r="1.64"/><circle class="cls-3" cx="101.4" cy="42.78" r="1.64"/></svg>