<svg id="Layer_1" data-name="Layer 1" xmlns="http://www.w3.org/2000/svg" viewBox="0 0 178.5 74"><defs><style>.cls-1{fill:#9c3;}.cls-2{fill:#55565b;}.cls-3{fill:none;stroke:#55565b;stroke-linecap:round;stroke-linejoin:round;stroke-width:3px;}.cls-4{fill:#fff;}</style></defs><title>we carry-web</title><path class="cls-1" d="M85.3,53a1,1,0,0,0-1.54-.17c-2,1.89-6.08,2.92-9,2.92-6.32,0-10.34-3.82-10.86-10.47H87.15a2,2,0,0,0,2-2v0c0-9.48-6.06-16.06-14.75-16.06s-15,6.78-15,16.33,6.19,16.33,15,16.33c4.85,0,9-1.68,11.65-4.42a1.06,1.06,0,0,0,.1-1.32ZM74.43,31c6,0,10.08,4.15,10.67,10.41H63.63C64.36,35.25,68.31,31,74.43,31ZM38.07,12.22h2.72a1,1,0,0,1,1,1.4L25.53,58.21a1,1,0,0,1-1,.68H21.35a1.05,1.05,0,0,1-1-.68L10.75,31.76a1,1,0,0,1,1-1.39h2.73a1,1,0,0,1,1,.68L23,51.77,37.1,12.91A1,1,0,0,1,38.07,12.22Zm20.26,0h2.72a1,1,0,0,1,1,1.4L45.79,58.21a1,1,0,0,1-1,.68H41.61a1.05,1.05,0,0,1-1-.68L33.86,39.6l2.47-6.78,6.88,19L57.36,12.91A1,1,0,0,1,58.33,12.22Z"/><circle class="cls-1" cx="98.44" cy="42.28" r="2.66"/><circle class="cls-2" cx="112.37" cy="16.67" r="1.5"/><circle class="cls-2" cx="104.9" cy="27.88" r="1.5"/><polyline class="cls-3" points="119.85 16.67 149.75 16.67 149.75 57.76"/><path class="cls-3" d="M149.75,27.88h8.52a3.74,3.74,0,0,1,3.55,2.56l2.88,8.66h3.74a3.74,3.74,0,0,1,3.74,3.73v15H112.37"/><circle class="cls-4" cx="160.97" cy="57.79" r="4.49"/><path class="cls-2" d="M161,54.8a3,3,0,1,1-3,3,3,3,0,0,1,3-3m0-3a6,6,0,1,0,6,6,6,6,0,0,0-6-6Z"/><circle class="cls-4" cx="123.59" cy="57.79" r="4.49"/><path class="cls-2" d="M123.59,54.8a3,3,0,1,1-3,3,3,3,0,0,1,3-3m0-3a6,6,0,1,0,6,6,6,6,0,0,0-6-6Z"/><line class="cls-3" x1="149.75" y1="39.2" x2="157.23" y2="39.2"/><line class="cls-3" x1="134.8" y1="39.1" x2="108.64" y2="39.1"/><line class="cls-3" x1="134.8" y1="27.88" x2="112.37" y2="27.88"/></svg>