<svg id="Layer_1" data-name="Layer 1" xmlns="http://www.w3.org/2000/svg" viewBox="0 0 178.5 74"><defs><style>.cls-1{fill:#9c3;}.cls-2{fill:none;stroke:#55565b;stroke-linecap:round;stroke-linejoin:round;stroke-width:4px;}.cls-3{fill:#55565b;}</style></defs><title>we carry-web</title><path class="cls-1" d="M82.3,54.11a1,1,0,0,0-1.54-.17c-2,1.89-6.08,2.92-9,2.92-6.32,0-10.34-3.82-10.87-10.47H84.15a2,2,0,0,0,2-2v0c0-9.48-6-16.07-14.75-16.07S56.42,35.13,56.42,44.68,62.61,61,71.36,61c4.86,0,9-1.67,11.66-4.42a1,1,0,0,0,.1-1.31ZM71.43,32.17c6,0,10.07,4.15,10.67,10.4H60.63C61.36,36.39,65.31,32.17,71.43,32.17ZM35.07,13.36h2.72a1,1,0,0,1,1,1.39L22.53,59.34a1,1,0,0,1-1,.68H18.34a1,1,0,0,1-1-.68L7.74,32.9a1,1,0,0,1,1-1.39h2.73a1,1,0,0,1,1,.68L20,52.9,34.09,14A1,1,0,0,1,35.07,13.36Zm20.26,0h2.72a1,1,0,0,1,1,1.39L42.79,59.34a1,1,0,0,1-1,.68H38.6a1,1,0,0,1-1-.68l-6.77-18.6L33.32,34,40.21,52.9,54.35,14A1,1,0,0,1,55.33,13.36Z"/><circle class="cls-1" cx="95.43" cy="43.42" r="2.66"/><path class="cls-2" d="M130.55,62.84a13.44,13.44,0,1,1,26.87,0Z"/><path class="cls-2" d="M117.11,29.25a26.79,26.79,0,0,1,7.87-19"/><path class="cls-2" d="M125,48.25a26.78,26.78,0,0,1-6.34-10"/><path class="cls-2" d="M163,10.24a26.87,26.87,0,0,1,0,38"/><path class="cls-2" d="M129.73,43.5a20.15,20.15,0,0,1,0-28.5"/><path class="cls-2" d="M158.23,15a20.15,20.15,0,0,1,0,28.5"/><path class="cls-2" d="M134.48,38.75a13.43,13.43,0,0,1,0-19"/><path class="cls-2" d="M153.48,19.75a13.43,13.43,0,0,1,0,19"/><circle class="cls-3" cx="143.98" cy="29.25" r="3.58"/><line class="cls-2" x1="143.98" y1="29.25" x2="143.98" y2="49.4"/><circle class="cls-3" cx="103.65" cy="20.38" r="1.79"/><circle class="cls-3" cx="99.17" cy="29.25" r="1.79"/><line class="cls-2" x1="118.64" y1="38.21" x2="108.13" y2="38.21"/><line class="cls-2" x1="112.6" y1="20.29" x2="118.64" y2="20.29"/><line class="cls-2" x1="117.08" y1="29.25" x2="108.13" y2="29.25"/></svg>