<svg id="Layer_1" data-name="Layer 1" xmlns="http://www.w3.org/2000/svg" viewBox="0 0 178.5 74"><defs><style>.cls-1{fill:#9c3;}.cls-2{fill:none;stroke:#55565b;stroke-linecap:round;stroke-linejoin:round;stroke-width:3px;}.cls-3{fill:#55565b;}</style></defs><title>we carry-web</title><path class="cls-1" d="M83.23,53.83a1,1,0,0,0-1.55-.17c-2,1.9-6.08,2.93-9,2.93-6.32,0-10.33-3.82-10.86-10.47H85.07a2,2,0,0,0,2-2v0C87,34.66,81,28.07,72.29,28.07s-15,6.79-15,16.33,6.19,16.33,15,16.33c4.85,0,9-1.67,11.65-4.42A1,1,0,0,0,84,55ZM72.35,31.89c6,0,10.08,4.15,10.67,10.41H61.56C62.28,36.11,66.23,31.89,72.35,31.89ZM36,13.08h2.72a1,1,0,0,1,1,1.39L23.46,59.06a1,1,0,0,1-1,.69H19.27a1,1,0,0,1-1-.69L8.67,32.62a1,1,0,0,1,1-1.39h2.73a1,1,0,0,1,1,.68l7.53,20.71L35,13.76A1,1,0,0,1,36,13.08Zm20.26,0H59a1,1,0,0,1,1,1.39L43.72,59.06a1,1,0,0,1-1,.69H39.53a1,1,0,0,1-1-.69l-6.77-18.6,2.47-6.78,6.88,18.94L55.28,13.76A1,1,0,0,1,56.25,13.08Z"/><circle class="cls-1" cx="96.36" cy="43.14" r="2.66"/><path class="cls-2" d="M124.31,25.32h5.55v18.5h-5.55a9.25,9.25,0,0,1-9.25-9.25h0A9.25,9.25,0,0,1,124.31,25.32Z"/><path class="cls-2" d="M153.91,43.82h-5.55V25.32h5.55a9.25,9.25,0,0,1,9.25,9.25h0A9.25,9.25,0,0,1,153.91,43.82Z"/><circle class="cls-3" cx="107.66" cy="27.17" r="1.48"/><circle class="cls-3" cx="100.26" cy="34.57" r="1.48"/><line class="cls-2" x1="108.1" y1="34.57" x2="115.06" y2="34.57"/><line class="cls-2" x1="108.1" y1="41.97" x2="118.77" y2="41.97"/><path class="cls-2" d="M126.16,25.32a13,13,0,1,1,25.9,0"/><path class="cls-3" d="M144.66,51.22v3.7h-11.1v-3.7h11.1m0-3h-11.1a3,3,0,0,0-3,3v3.7a3,3,0,0,0,3,3h11.1a3,3,0,0,0,3-3v-3.7a3,3,0,0,0-3-3Z"/><path class="cls-2" d="M163.16,34.57H165a9.25,9.25,0,0,1,9.25,9.24h0A9.24,9.24,0,0,1,165,53.05l-18.51,0"/></svg>