<svg id="Layer_1" data-name="Layer 1" xmlns="http://www.w3.org/2000/svg" viewBox="0 0 178.5 74"><defs><style>.cls-1{fill:#9c3;}.cls-2{fill:#55565b;}.cls-3{fill:none;stroke:#55565b;stroke-linecap:round;stroke-linejoin:round;stroke-width:4px;}</style></defs><title>we carry-web</title><path class="cls-1" d="M78.56,54.14A1,1,0,0,0,77,54c-2,1.89-6.08,2.92-9,2.92-6.32,0-10.33-3.82-10.86-10.47H80.41a2,2,0,0,0,2-2h0c0-9.49-6.06-16.07-14.75-16.07s-15,6.78-15,16.33S58.86,61,67.62,61c4.85,0,9-1.68,11.65-4.42a1,1,0,0,0,.1-1.32ZM67.69,32.2c6,0,10.07,4.15,10.66,10.4H56.89C57.61,36.41,61.56,32.2,67.69,32.2ZM31.32,13.39H34a1,1,0,0,1,1,1.39L18.79,59.37a1,1,0,0,1-1,.68H14.6a1,1,0,0,1-1-.68L4,32.93a1,1,0,0,1,1-1.4H7.7a1,1,0,0,1,1,.69l7.53,20.71L30.35,14.07A1,1,0,0,1,31.32,13.39Zm20.26,0H54.3a1,1,0,0,1,1,1.39L39.05,59.37a1,1,0,0,1-1,.68H34.86a1,1,0,0,1-1-.68L27.11,40.76,29.58,34l6.89,18.94L50.61,14.07A1,1,0,0,1,51.58,13.39Z"/><circle class="cls-1" cx="91.69" cy="43.44" r="2.66"/><circle class="cls-2" cx="163.66" cy="17.01" r="1.73"/><circle class="cls-2" cx="124.79" cy="40.33" r="2.07"/><path class="cls-3" d="M114.73,42.83a10.34,10.34,0,0,0,2.73,4.83l7.33,8.22,7.33-8.22A10.37,10.37,0,0,0,117.46,33a13,13,0,0,0-1.09,1.28"/><path class="cls-3" d="M169.77,23.12a8.64,8.64,0,1,0-12.22,0L163.66,30Z"/><path class="cls-3" d="M125,60.2h27.91a6.48,6.48,0,0,0,6.48-6.48h0a6.48,6.48,0,0,0-6.48-6.48h-4.32a6.48,6.48,0,0,1-6.47-6.48h0a6.47,6.47,0,0,1,6.47-6.47H155"/><circle class="cls-2" cx="98.88" cy="34.28" r="1.73"/><circle class="cls-2" cx="109.68" cy="51.56" r="1.73"/><line class="cls-3" x1="107.52" y1="34.28" x2="116.38" y2="34.28"/><line class="cls-3" x1="114.74" y1="42.83" x2="103.2" y2="42.83"/><polyline class="cls-3" points="152.86 40.76 159.34 34.28 152.86 27.81"/></svg>