<svg id="Layer_1" data-name="Layer 1" xmlns="http://www.w3.org/2000/svg" viewBox="0 0 178.5 74"><defs><style>.cls-1{fill:#9c3;}.cls-2{fill:none;}.cls-2,.cls-4{stroke:#55565b;stroke-linecap:round;stroke-linejoin:round;stroke-width:4px;}.cls-3{fill:#55565b;}.cls-4{fill:#fff;}</style></defs><title>we carry-web</title><path class="cls-1" d="M83,53.93a1,1,0,0,0-1.55-.17c-2,1.89-6.07,2.92-9,2.92-6.33,0-10.34-3.82-10.87-10.47H84.83a2,2,0,0,0,2-2v0c0-9.48-6.06-16.06-14.75-16.06s-15,6.78-15,16.33,6.19,16.33,15,16.33c4.86,0,9-1.68,11.66-4.42a1,1,0,0,0,.09-1.32ZM72.11,32c6,0,10.07,4.14,10.66,10.4H61.31C62,36.2,66,32,72.11,32ZM35.74,13.18h2.72a1,1,0,0,1,1,1.39L23.21,59.16a1,1,0,0,1-1,.68H19a1,1,0,0,1-1-.68L8.42,32.71a1,1,0,0,1,1-1.39h2.72a1,1,0,0,1,1,.69l7.53,20.71L34.77,13.86A1,1,0,0,1,35.74,13.18Zm20.27,0h2.71a1,1,0,0,1,1,1.39L43.47,59.16a1,1,0,0,1-1,.68H39.28a1,1,0,0,1-1-.68L31.54,40.55,34,33.77l6.89,18.95L55,13.86A1,1,0,0,1,56,13.18Z"/><circle class="cls-1" cx="96.11" cy="43.23" r="2.66"/><path class="cls-2" d="M125.14,21.7a22,22,0,1,1-1.81,8.74"/><path class="cls-3" d="M132.43,53A25.91,25.91,0,0,0,158,53a17.74,17.74,0,0,1,4.66,8.52H127.77A17.72,17.72,0,0,1,132.43,53m-.33-5a21.86,21.86,0,0,0-8.77,17.53h43.81A21.86,21.86,0,0,0,158.38,48a21.88,21.88,0,0,1-26.28,0Z"/><circle class="cls-4" cx="145.23" cy="30.44" r="10.95"/><circle class="cls-4" cx="145.23" cy="30.44" r="4.38"/><line class="cls-2" x1="123.33" y1="30.44" x2="110.18" y2="30.44"/><line class="cls-2" x1="125.14" y1="21.7" x2="114.56" y2="21.7"/><line class="cls-2" x1="110.18" y1="39.2" x2="125.15" y2="39.2"/><circle class="cls-3" cx="105.8" cy="21.68" r="1.75"/><circle class="cls-3" cx="101.42" cy="30.35" r="1.75"/></svg>