<svg id="Layer_1" data-name="Layer 1" xmlns="http://www.w3.org/2000/svg" viewBox="0 0 178.5 74"><defs><style>.cls-1{fill:#9c3;}.cls-2{fill:none;stroke:#55565b;stroke-linecap:round;stroke-linejoin:round;stroke-width:4px;}.cls-3{fill:#55565b;}</style></defs><title>we carry-web</title><path class="cls-1" d="M78.56,51.42A1,1,0,0,0,77,51.25c-2,1.89-6.08,2.92-9,2.92-6.32,0-10.33-3.82-10.86-10.47H80.41a2,2,0,0,0,2-2v0c0-9.48-6.06-16.06-14.75-16.06s-15,6.78-15,16.33,6.19,16.33,15,16.33c4.85,0,9-1.68,11.65-4.42a1,1,0,0,0,.1-1.32ZM67.69,29.48c6,0,10.07,4.15,10.66,10.4H56.89C57.61,33.69,61.56,29.48,67.69,29.48ZM31.32,10.67H34a1,1,0,0,1,1,1.39L18.79,56.65a1,1,0,0,1-1,.68H14.6a1,1,0,0,1-1-.68L4,30.21a1,1,0,0,1,1-1.4H7.7a1,1,0,0,1,1,.69l7.53,20.71L30.35,11.35A1,1,0,0,1,31.32,10.67Zm20.26,0H54.3a1,1,0,0,1,1,1.39L39.05,56.65a1,1,0,0,1-1,.68H34.86a1,1,0,0,1-1-.68L27.11,38l2.47-6.77,6.89,18.94L50.61,11.35A1,1,0,0,1,51.58,10.67Z"/><circle class="cls-1" cx="91.69" cy="40.72" r="2.66"/><path class="cls-2" d="M117.38,33.1a12.75,12.75,0,0,1,17.48-11.86,12.75,12.75,0,0,1,24.35-.87c.24,0,.48,0,.73,0a12.77,12.77,0,0,1,2.13,25.36,12.58,12.58,0,0,1-2.13.18h0"/><path class="cls-2" d="M130.15,45.83s.25,0,0,0a12.76,12.76,0,0,1-9.52-4.26"/><line class="cls-2" x1="151.43" y1="37.36" x2="151.43" y2="56.5"/><line class="cls-2" x1="138.66" y1="33.1" x2="138.66" y2="54.38"/><polyline class="cls-2" points="145.04 52.25 151.43 58.63 157.81 52.25"/><polyline class="cls-2" points="145.04 39.48 138.66 33.1 132.28 39.48"/><circle class="cls-3" cx="104.62" cy="24.59" r="1.7"/><circle class="cls-3" cx="96.06" cy="32.79" r="1.7"/><line class="cls-2" x1="120.64" y1="41.61" x2="104.57" y2="41.61"/><line class="cls-2" x1="113.13" y1="24.59" x2="120.64" y2="24.59"/><line class="cls-2" x1="117.33" y1="33.1" x2="104.57" y2="33.1"/></svg>