<svg id="Layer_1" data-name="Layer 1" xmlns="http://www.w3.org/2000/svg" viewBox="0 0 178.5 74"><defs><style>.cls-1{fill:#9c3;}.cls-2,.cls-4{fill:none;}.cls-2,.cls-3{stroke:#55565b;}.cls-2,.cls-3,.cls-4{stroke-linecap:round;stroke-linejoin:round;stroke-width:4px;}.cls-3{fill:#fff;}.cls-4{stroke:#fff;}.cls-5{fill:#55565b;}</style></defs><title>we carry-web</title><path class="cls-1" d="M77.65,50.63a1,1,0,0,0-1.55-.17c-2,1.89-6.08,2.92-9,2.92-6.32,0-10.33-3.82-10.86-10.47H79.5a2,2,0,0,0,2-2h0c0-9.49-6.06-16.07-14.75-16.07S51.76,31.65,51.76,41.2,58,57.53,66.71,57.53c4.85,0,9-1.68,11.65-4.42a1,1,0,0,0,.1-1.32ZM66.78,28.69c6,0,10.07,4.15,10.66,10.4H56C56.7,32.9,60.65,28.69,66.78,28.69ZM30.41,9.88h2.72a1,1,0,0,1,1,1.39L17.88,55.86a1,1,0,0,1-1,.68H13.69a1,1,0,0,1-1-.68L3.09,29.42a1,1,0,0,1,1-1.39H6.79a1,1,0,0,1,1,.68L15.3,49.42,29.44,10.56A1,1,0,0,1,30.41,9.88Zm20.26,0h2.72a1,1,0,0,1,1,1.39L38.14,55.86a1,1,0,0,1-1,.68H34a1,1,0,0,1-1-.68L26.2,37.25l2.47-6.77,6.89,18.94L49.7,10.56A1,1,0,0,1,50.67,9.88Z"/><circle class="cls-1" cx="90.78" cy="39.93" r="2.66"/><path class="cls-2" d="M156.86,50l-35.72.33a4.07,4.07,0,0,1-4.11-4l-.18-19.86-.08-7.89a4.07,4.07,0,0,1,4-4.1l35.72-.34a4.08,4.08,0,0,1,4.11,4l.26,27.74A4.07,4.07,0,0,1,156.86,50Z"/><line class="cls-2" x1="116.85" y1="26.42" x2="160.7" y2="26.02"/><circle class="cls-3" cx="156.9" cy="45.99" r="11.96"/><polyline class="cls-4" points="154.87 42.06 158.86 50.03 174.73 33.86"/><polyline class="cls-2" points="152.88 42.08 156.87 50.05 172.74 33.88"/><line class="cls-2" x1="116.92" y1="34.4" x2="106.95" y2="34.49"/><line class="cls-2" x1="116.85" y1="26.45" x2="110.87" y2="26.51"/><line class="cls-2" x1="107.03" y1="42.47" x2="117" y2="42.37"/><circle class="cls-5" cx="102.89" cy="26.55" r="1.59"/><circle class="cls-5" cx="98.98" cy="34.48" r="1.59"/><circle class="cls-5" cx="122.77" cy="20.39" r="1.59"/><circle class="cls-5" cx="126.76" cy="20.35" r="1.59"/><circle class="cls-5" cx="130.75" cy="20.31" r="1.59"/></svg>