<svg id="Layer_1" data-name="Layer 1" xmlns="http://www.w3.org/2000/svg" viewBox="0 0 178.5 74"><defs><style>.cls-1{fill:#9c3;}.cls-2{fill:#55565b;}.cls-3,.cls-4,.cls-5{fill:none;stroke:#55565b;stroke-linecap:round;stroke-linejoin:round;}.cls-3{stroke-width:4px;}.cls-4{stroke-width:4.5px;}.cls-5{stroke-width:3px;}</style></defs><title>we carry-web</title><path class="cls-1" d="M84,52.31a1,1,0,0,0-1.55-.17c-2,1.89-6.07,2.92-9,2.92-6.32,0-10.34-3.82-10.87-10.47H85.81a2,2,0,0,0,2-2h0c0-9.48-6.06-16.07-14.75-16.07S58.07,33.33,58.07,42.88,64.26,59.21,73,59.21c4.86,0,9-1.68,11.66-4.42a1,1,0,0,0,.09-1.31ZM73.09,30.37c6,0,10.07,4.15,10.66,10.4H62.29C63,34.58,67,30.37,73.09,30.37ZM36.73,11.56h2.71a1,1,0,0,1,1,1.39L24.19,57.54a1,1,0,0,1-1,.68H20a1,1,0,0,1-1-.68L9.4,31.1a1,1,0,0,1,1-1.39H13.1a1,1,0,0,1,1,.68L21.61,51.1,35.75,12.24A1,1,0,0,1,36.73,11.56Zm20.26,0H59.7a1,1,0,0,1,1,1.39L44.45,57.54a1,1,0,0,1-1,.68H40.26a1,1,0,0,1-1-.68l-6.77-18.6L35,32.16,41.87,51.1,56,12.24A1,1,0,0,1,57,11.56Z"/><circle class="cls-1" cx="97.09" cy="41.62" r="2.66"/><path class="cls-2" d="M159,48.44l10.2,10.2-3.1,3.09L156,51.54l3.09-3.1m0-4a4,4,0,0,0-2.83,1.17l-3.09,3.1a4,4,0,0,0,0,5.66l10.19,10.19a4,4,0,0,0,5.66,0l3.1-3.09a4,4,0,0,0,0-5.66l-10.2-10.2A4,4,0,0,0,159,44.44Z"/><line class="cls-3" x1="155.91" y1="48.41" x2="152.1" y2="44.59"/><circle class="cls-4" cx="137.52" cy="30.02" r="19.71"/><path class="cls-2" d="M141.67,24.38a1.46,1.46,0,0,1-1.4,1.56c-.87,0-1.54-.63-2.8-.63-.9,0-1.72.48-1.72,1.37,0,2.16,7,.77,7,6.2,0,3-2.48,4.87-5.38,4.87-1.62,0-5.11-.37-5.11-2.35a1.4,1.4,0,0,1,1.41-1.49c1,0,2.16.82,3.53.82s2.14-.78,2.14-1.81c0-2.48-7-1-7-5.87,0-2.94,2.42-4.77,5.21-4.77C138.73,22.28,141.67,22.72,141.67,24.38Z"/><line class="cls-5" x1="137.52" y1="19.65" x2="137.52" y2="22.28"/><line class="cls-5" x1="137.52" y1="37.75" x2="137.52" y2="40.38"/><circle class="cls-2" cx="105.1" cy="23.45" r="1.75"/><circle class="cls-2" cx="100.73" cy="32.12" r="1.75"/><line class="cls-3" x1="121.14" y1="40.97" x2="115.63" y2="40.97"/><line class="cls-3" x1="111.25" y1="23.45" x2="118.94" y2="23.45"/><line class="cls-3" x1="117.94" y1="32.21" x2="106.87" y2="32.21"/></svg>