<svg id="Layer_1" data-name="Layer 1" xmlns="http://www.w3.org/2000/svg" viewBox="0 0 178.5 74"><defs><style>.cls-1{fill:#55565b;}.cls-2{fill:none;stroke:#55565b;stroke-linecap:round;stroke-linejoin:round;stroke-width:3px;}.cls-3{fill:#9c3;}</style></defs><title>we carry-web</title><circle class="cls-1" cx="107.4" cy="30.3" r="1.39"/><circle class="cls-1" cx="103.91" cy="37.21" r="1.39"/><polyline class="cls-2" points="114.37 30.3 121.36 30.3 121.36 23.33 145.75 12.87 170.14 23.33 170.16 51.22 145.73 61.64 121.36 51.18 121.36 44.43 110.89 44.43"/><polyline class="cls-2" points="121.36 23.33 145.75 33.79 170.14 23.33"/><line class="cls-2" x1="145.75" y1="33.79" x2="145.73" y2="61.64"/><line class="cls-2" x1="121.35" y1="37.21" x2="110.89" y2="37.21"/><line class="cls-2" x1="133.56" y1="28.56" x2="157.94" y2="18.1"/><polygon class="cls-2" points="156.21 36.27 145.75 40.75 145.74 47.72 156.21 43.24 156.21 36.27"/><path class="cls-3" d="M84.3,51.69a1,1,0,0,0-1.55-.17c-2,1.89-6.08,2.92-9,2.92-6.32,0-10.33-3.82-10.86-10.47H86.15a2,2,0,0,0,2-1.95v0c0-9.48-6.06-16.07-14.75-16.07s-15,6.78-15,16.33,6.19,16.33,15,16.33c4.85,0,9-1.67,11.65-4.42a1,1,0,0,0,.1-1.31ZM73.43,29.75c6,0,10.07,4.15,10.66,10.41H62.63C63.35,34,67.3,29.75,73.43,29.75ZM37.06,10.94h2.72a1,1,0,0,1,1,1.39L24.53,56.92a1,1,0,0,1-1,.68H20.34a1,1,0,0,1-1-.68L9.74,30.48a1,1,0,0,1,1-1.39h2.73a1,1,0,0,1,1,.68L22,50.48,36.09,11.62A1,1,0,0,1,37.06,10.94Zm20.26,0H60a1,1,0,0,1,1,1.39L44.79,56.92a1,1,0,0,1-1,.68H40.6a1,1,0,0,1-1-.68l-6.78-18.6,2.47-6.78,6.89,18.94L56.35,11.62A1,1,0,0,1,57.32,10.94Z"/><circle class="cls-3" cx="97.43" cy="41" r="2.66"/></svg>